<mxfile host="app.diagrams.net" agent="Mozilla/5.0 (Windows NT 10.0; Win64; x64) AppleWebKit/537.36 (KHTML, like Gecko) Chrome/134.0.0.0 Safari/537.36" version="26.0.2">
  <diagram name="Trang-1" id="1AcIN_PpJDTRdfSxtxAr">
    <mxGraphModel dx="841" dy="484" grid="0" gridSize="10" guides="1" tooltips="1" connect="1" arrows="1" fold="1" page="1" pageScale="1" pageWidth="827" pageHeight="1169" math="0" shadow="0">
      <root>
        <mxCell id="0" />
        <mxCell id="1" parent="0" />
        <mxCell id="GU9HKlkLZ6-QxPpkVGX3-1" value="Bắt đầu" style="rounded=0;whiteSpace=wrap;html=1;" parent="1" vertex="1">
          <mxGeometry x="340" y="80" width="120" height="40" as="geometry" />
        </mxCell>
        <mxCell id="GU9HKlkLZ6-QxPpkVGX3-2" value="Nhập số a và b" style="rounded=1;whiteSpace=wrap;html=1;" parent="1" vertex="1">
          <mxGeometry x="340" y="180" width="120" height="30" as="geometry" />
        </mxCell>
        <mxCell id="GU9HKlkLZ6-QxPpkVGX3-3" value="" style="endArrow=classic;html=1;rounded=0;entryX=0.5;entryY=0;entryDx=0;entryDy=0;" parent="1" target="GU9HKlkLZ6-QxPpkVGX3-2" edge="1">
          <mxGeometry width="50" height="50" relative="1" as="geometry">
            <mxPoint x="400" y="120" as="sourcePoint" />
            <mxPoint x="440" y="130" as="targetPoint" />
            <Array as="points">
              <mxPoint x="399" y="120" />
            </Array>
          </mxGeometry>
        </mxCell>
        <mxCell id="GU9HKlkLZ6-QxPpkVGX3-4" value="So sánh a với b" style="rounded=1;whiteSpace=wrap;html=1;" parent="1" vertex="1">
          <mxGeometry x="340" y="250" width="120" height="60" as="geometry" />
        </mxCell>
        <mxCell id="GU9HKlkLZ6-QxPpkVGX3-5" value="" style="endArrow=classic;html=1;rounded=0;exitX=0.5;exitY=1;exitDx=0;exitDy=0;entryX=0.5;entryY=0;entryDx=0;entryDy=0;" parent="1" source="GU9HKlkLZ6-QxPpkVGX3-2" target="GU9HKlkLZ6-QxPpkVGX3-4" edge="1">
          <mxGeometry width="50" height="50" relative="1" as="geometry">
            <mxPoint x="390" y="300" as="sourcePoint" />
            <mxPoint x="440" y="250" as="targetPoint" />
          </mxGeometry>
        </mxCell>
        <mxCell id="GU9HKlkLZ6-QxPpkVGX3-6" value="" style="endArrow=classic;startArrow=classic;html=1;rounded=0;exitX=0.5;exitY=0;exitDx=0;exitDy=0;entryX=0.5;entryY=0;entryDx=0;entryDy=0;" parent="1" source="GU9HKlkLZ6-QxPpkVGX3-8" target="GU9HKlkLZ6-QxPpkVGX3-9" edge="1">
          <mxGeometry width="50" height="50" relative="1" as="geometry">
            <mxPoint x="330" y="390" as="sourcePoint" />
            <mxPoint x="475" y="390" as="targetPoint" />
            <Array as="points">
              <mxPoint x="400" y="360" />
            </Array>
          </mxGeometry>
        </mxCell>
        <mxCell id="GU9HKlkLZ6-QxPpkVGX3-7" value="" style="endArrow=classic;html=1;rounded=0;exitX=0.5;exitY=1;exitDx=0;exitDy=0;" parent="1" source="GU9HKlkLZ6-QxPpkVGX3-4" edge="1">
          <mxGeometry width="50" height="50" relative="1" as="geometry">
            <mxPoint x="370" y="370" as="sourcePoint" />
            <mxPoint x="400" y="360" as="targetPoint" />
          </mxGeometry>
        </mxCell>
        <mxCell id="GU9HKlkLZ6-QxPpkVGX3-8" value="a &amp;lt; b ?" style="rounded=1;whiteSpace=wrap;html=1;" parent="1" vertex="1">
          <mxGeometry x="180" y="410" width="120" height="60" as="geometry" />
        </mxCell>
        <mxCell id="GU9HKlkLZ6-QxPpkVGX3-9" value="a &amp;gt;= b ?" style="rounded=1;whiteSpace=wrap;html=1;" parent="1" vertex="1">
          <mxGeometry x="500" y="410" width="120" height="60" as="geometry" />
        </mxCell>
        <mxCell id="GU9HKlkLZ6-QxPpkVGX3-10" value="In a&amp;nbsp;" style="rounded=0;whiteSpace=wrap;html=1;" parent="1" vertex="1">
          <mxGeometry x="110" y="500" width="120" height="30" as="geometry" />
        </mxCell>
        <mxCell id="GU9HKlkLZ6-QxPpkVGX3-11" value="In b&amp;nbsp;" style="rounded=0;whiteSpace=wrap;html=1;" parent="1" vertex="1">
          <mxGeometry x="250" y="500" width="120" height="30" as="geometry" />
        </mxCell>
        <mxCell id="GU9HKlkLZ6-QxPpkVGX3-12" value="In b" style="rounded=0;whiteSpace=wrap;html=1;" parent="1" vertex="1">
          <mxGeometry x="430" y="500" width="120" height="30" as="geometry" />
        </mxCell>
        <mxCell id="GU9HKlkLZ6-QxPpkVGX3-13" value="In&amp;nbsp;" style="rounded=0;whiteSpace=wrap;html=1;" parent="1" vertex="1">
          <mxGeometry x="570" y="500" width="120" height="30" as="geometry" />
        </mxCell>
        <mxCell id="GU9HKlkLZ6-QxPpkVGX3-14" value="" style="endArrow=classic;html=1;rounded=0;exitX=0.5;exitY=1;exitDx=0;exitDy=0;entryX=0.58;entryY=-0.093;entryDx=0;entryDy=0;entryPerimeter=0;" parent="1" source="GU9HKlkLZ6-QxPpkVGX3-8" target="GU9HKlkLZ6-QxPpkVGX3-11" edge="1">
          <mxGeometry width="50" height="50" relative="1" as="geometry">
            <mxPoint x="300" y="490" as="sourcePoint" />
            <mxPoint x="350" y="440" as="targetPoint" />
          </mxGeometry>
        </mxCell>
        <mxCell id="GU9HKlkLZ6-QxPpkVGX3-16" value="" style="endArrow=classic;html=1;rounded=0;exitX=0.5;exitY=1;exitDx=0;exitDy=0;entryX=0.5;entryY=0;entryDx=0;entryDy=0;" parent="1" source="GU9HKlkLZ6-QxPpkVGX3-9" target="GU9HKlkLZ6-QxPpkVGX3-13" edge="1">
          <mxGeometry width="50" height="50" relative="1" as="geometry">
            <mxPoint x="610" y="490" as="sourcePoint" />
            <mxPoint x="660" y="440" as="targetPoint" />
          </mxGeometry>
        </mxCell>
        <mxCell id="GU9HKlkLZ6-QxPpkVGX3-19" value="" style="endArrow=classic;html=1;rounded=0;entryX=0.42;entryY=-0.013;entryDx=0;entryDy=0;entryPerimeter=0;exitX=0.5;exitY=1;exitDx=0;exitDy=0;" parent="1" source="GU9HKlkLZ6-QxPpkVGX3-8" target="GU9HKlkLZ6-QxPpkVGX3-10" edge="1">
          <mxGeometry width="50" height="50" relative="1" as="geometry">
            <mxPoint x="190" y="490" as="sourcePoint" />
            <mxPoint x="240" y="440" as="targetPoint" />
            <Array as="points" />
          </mxGeometry>
        </mxCell>
        <mxCell id="GU9HKlkLZ6-QxPpkVGX3-20" value="" style="endArrow=classic;html=1;rounded=0;exitX=0.5;exitY=1;exitDx=0;exitDy=0;entryX=0.5;entryY=0;entryDx=0;entryDy=0;" parent="1" source="GU9HKlkLZ6-QxPpkVGX3-9" target="GU9HKlkLZ6-QxPpkVGX3-12" edge="1">
          <mxGeometry width="50" height="50" relative="1" as="geometry">
            <mxPoint x="386" y="568" as="sourcePoint" />
            <mxPoint x="436" y="518" as="targetPoint" />
          </mxGeometry>
        </mxCell>
        <mxCell id="GU9HKlkLZ6-QxPpkVGX3-21" value="" style="endArrow=classic;html=1;rounded=0;exitX=0.5;exitY=1;exitDx=0;exitDy=0;entryX=0.25;entryY=0;entryDx=0;entryDy=0;" parent="1" source="GU9HKlkLZ6-QxPpkVGX3-10" target="GU9HKlkLZ6-QxPpkVGX3-23" edge="1">
          <mxGeometry width="50" height="50" relative="1" as="geometry">
            <mxPoint x="386" y="568" as="sourcePoint" />
            <mxPoint x="312" y="584" as="targetPoint" />
          </mxGeometry>
        </mxCell>
        <mxCell id="GU9HKlkLZ6-QxPpkVGX3-22" value="" style="endArrow=classic;html=1;rounded=0;exitX=0.5;exitY=1;exitDx=0;exitDy=0;" parent="1" source="GU9HKlkLZ6-QxPpkVGX3-12" target="GU9HKlkLZ6-QxPpkVGX3-23" edge="1">
          <mxGeometry width="50" height="50" relative="1" as="geometry">
            <mxPoint x="402" y="578" as="sourcePoint" />
            <mxPoint x="544" y="632" as="targetPoint" />
          </mxGeometry>
        </mxCell>
        <mxCell id="GU9HKlkLZ6-QxPpkVGX3-23" value="Kết thúc" style="rounded=1;whiteSpace=wrap;html=1;" parent="1" vertex="1">
          <mxGeometry x="306" y="597" width="137" height="47" as="geometry" />
        </mxCell>
      </root>
    </mxGraphModel>
  </diagram>
</mxfile>
